<svg width="25" height="24" viewBox="0 0 25 24" fill="none" xmlns="http://www.w3.org/2000/svg">
<path fill-rule="evenodd" clip-rule="evenodd" d="M15.8645 12L23.7605 4.104C24.2165 3.672 24.4805 3.072 24.4805 2.4C24.4805 1.08 23.4005 0 22.0805 0C21.4085 0 20.8085 0.264 20.3765 0.696L12.4805 8.616L4.58447 0.696C4.15247 0.264 3.55247 0 2.88047 0C1.56047 0 0.480469 1.08 0.480469 2.4C0.480469 3.072 0.744469 3.672 1.17647 4.104L9.09647 12L1.20047 19.896C0.744469 20.328 0.480469 20.928 0.480469 21.6C0.480469 22.92 1.56047 24 2.88047 24C3.55247 24 4.15247 23.736 4.58447 23.304L12.4805 15.384L20.3765 23.28C20.8085 23.736 21.4085 24 22.0805 24C23.4005 24 24.4805 22.92 24.4805 21.6C24.4805 20.928 24.2165 20.328 23.7845 19.896L15.8645 12Z" fill="#FAF8FB"/>
</svg>
