<svg width="20" height="20" viewBox="0 0 20 20" fill="none" xmlns="http://www.w3.org/2000/svg">
<path fill-rule="evenodd" clip-rule="evenodd" d="M15 6C15 5.45 14.55 5 14 5C13.72 5 13.47 5.11 13.29 5.29L10 8.59L6.71 5.29C6.53 5.11 6.28 5 6 5C5.45 5 5 5.45 5 6C5 6.28 5.11 6.53 5.29 6.71L8.59 10L5.3 13.29C5.11 13.47 5 13.72 5 14C5 14.55 5.45 15 6 15C6.28 15 6.53 14.89 6.71 14.71L10 11.41L13.29 14.7C13.47 14.89 13.72 15 14 15C14.55 15 15 14.55 15 14C15 13.72 14.89 13.47 14.71 13.29L11.41 10L14.7 6.71C14.89 6.53 15 6.28 15 6ZM10 0C4.48 0 0 4.48 0 10C0 15.52 4.48 20 10 20C15.52 20 20 15.52 20 10C20 4.48 15.52 0 10 0ZM10 18C5.58 18 2 14.42 2 10C2 5.58 5.58 2 10 2C14.42 2 18 5.58 18 10C18 14.42 14.42 18 10 18Z" fill="#971E9B"/>
</svg>
