<svg width="25" height="25" viewBox="0 0 25 25" fill="none" xmlns="http://www.w3.org/2000/svg">
<path fill-rule="evenodd" clip-rule="evenodd" d="M2.375 7.5H22.625C23.2437 7.5 23.75 6.9375 23.75 6.25C23.75 5.5625 23.2437 5 22.625 5H2.375C1.75625 5 1.25 5.5625 1.25 6.25C1.25 6.9375 1.75625 7.5 2.375 7.5ZM22.625 11.25H2.375C1.75625 11.25 1.25 11.8125 1.25 12.5C1.25 13.1875 1.75625 13.75 2.375 13.75H22.625C23.2437 13.75 23.75 13.1875 23.75 12.5C23.75 11.8125 23.2437 11.25 22.625 11.25ZM22.625 17.5H2.375C1.75625 17.5 1.25 18.0625 1.25 18.75C1.25 19.4375 1.75625 20 2.375 20H22.625C23.2437 20 23.75 19.4375 23.75 18.75C23.75 18.0625 23.2437 17.5 22.625 17.5Z" fill="#FAF8FB"/>
</svg>
