<svg width="14" height="15" viewBox="0 0 14 15" fill="none" xmlns="http://www.w3.org/2000/svg">
<path d="M6.04746 2.62403C6.56936 1.75308 7.83143 1.75308 8.35333 2.62403V2.62403C8.65769 3.13195 9.25861 3.38086 9.83299 3.23692V3.23692C10.8179 2.99011 11.7103 3.88253 11.4635 4.86742V4.86742C11.3195 5.4418 11.5685 6.04271 12.0764 6.34708V6.34708C12.9473 6.86898 12.9473 8.13105 12.0764 8.65295V8.65295C11.5685 8.95732 11.3195 9.55823 11.4635 10.1326V10.1326C11.7103 11.1175 10.8179 12.0099 9.83299 11.7631V11.7631C9.25861 11.6192 8.65769 11.8681 8.35333 12.376V12.376C7.83143 13.2469 6.56936 13.2469 6.04746 12.376V12.376C5.74309 11.8681 5.14218 11.6192 4.5678 11.7631V11.7631C3.5829 12.0099 2.69049 11.1175 2.9373 10.1326V10.1326C3.08124 9.55823 2.83233 8.95732 2.3244 8.65295V8.65295C1.45346 8.13105 1.45346 6.86898 2.3244 6.34708V6.34708C2.83233 6.04271 3.08124 5.4418 2.9373 4.86742V4.86742C2.69049 3.88253 3.5829 2.99011 4.5678 3.23692V3.23692C5.14218 3.38086 5.74309 3.13195 6.04746 2.62403V2.62403Z" fill="#DD45B3"/>
<path d="M8.84903 6.42856L8.84894 6.42865L7.06843 8.21199L6.49665 7.63771L6.49638 7.63745C6.41047 7.55153 6.29182 7.50001 6.1616 7.50001C5.90149 7.50001 5.68937 7.71212 5.68937 7.97223C5.68937 8.10245 5.74089 8.2211 5.82681 8.30702L5.94702 8.18681L5.82681 8.30702L6.73348 9.21368C6.8194 9.2996 6.93804 9.35112 7.06826 9.35112C7.19849 9.35112 7.31713 9.2996 7.40305 9.21368L9.51861 7.09813C9.60452 7.01221 9.65604 6.89356 9.65604 6.76334C9.65604 6.50323 9.44393 6.29112 9.18382 6.29112C9.0536 6.29112 8.93495 6.34264 8.84903 6.42856Z" fill="#FAF8FB" stroke="#FAF8FB" stroke-width="0.34"/>
</svg>
